<mxfile host="app.diagrams.net" modified="2023-10-30T13:11:57.741Z" agent="Mozilla/5.0 (Macintosh; Intel Mac OS X 10_15_7) AppleWebKit/537.36 (KHTML, like Gecko) Chrome/118.0.0.0 Safari/537.36" version="21.7.2" etag="JkLBTXtwdlM5uFvMLa0E" type="github">
  <diagram name="Seite-1" id="GXgKM5luarv9LBj80QYG">
    <mxGraphModel>
      <root>
        <mxCell id="0" />
        <mxCell id="1" parent="0" />
      </root>
    </mxGraphModel>
  </diagram>
</mxfile>
